<?xml version="1.0" encoding="UTF-8"?>
<!--Generator: Apple Native CoreSVG 326-->
<!DOCTYPE svg
PUBLIC "-//W3C//DTD SVG 1.1//EN"
       "http://www.w3.org/Graphics/SVG/1.1/DTD/svg11.dtd">
<svg version="1.1" xmlns="http://www.w3.org/2000/svg" xmlns:xlink="http://www.w3.org/1999/xlink" viewBox="0 0 24.2578 23.918">
 <g>
  <rect height="23.918" opacity="0" width="24.2578" x="0" y="0"/>
  <path d="M11.9531 23.9062C18.5508 23.9062 23.9062 18.5508 23.9062 11.9531C23.9062 5.35547 18.5508 0 11.9531 0C5.35547 0 0 5.35547 0 11.9531C0 18.5508 5.35547 23.9062 11.9531 23.9062ZM11.9531 21.9141C6.44531 21.9141 1.99219 17.4609 1.99219 11.9531C1.99219 6.44531 6.44531 1.99219 11.9531 1.99219C17.4609 1.99219 21.9141 6.44531 21.9141 11.9531C21.9141 17.4609 17.4609 21.9141 11.9531 21.9141Z" fill="black" fill-opacity="0.85"/>
  <path d="M6.51562 11.9531C6.51562 12.5273 6.91406 12.9141 7.51172 12.9141L10.957 12.9141L10.957 16.3711C10.957 16.957 11.3555 17.3672 11.9297 17.3672C12.5156 17.3672 12.9258 16.9688 12.9258 16.3711L12.9258 12.9141L16.3828 12.9141C16.9688 12.9141 17.3789 12.5273 17.3789 11.9531C17.3789 11.3672 16.9688 10.957 16.3828 10.957L12.9258 10.957L12.9258 7.51172C12.9258 6.91406 12.5156 6.50391 11.9297 6.50391C11.3555 6.50391 10.957 6.91406 10.957 7.51172L10.957 10.957L7.51172 10.957C6.91406 10.957 6.51562 11.3672 6.51562 11.9531Z" fill="black" fill-opacity="0.85"/>
 </g>
</svg>
