<?xml version="1.0" encoding="UTF-8"?>
<!--Generator: Apple Native CoreSVG 326-->
<!DOCTYPE svg
PUBLIC "-//W3C//DTD SVG 1.1//EN"
       "http://www.w3.org/Graphics/SVG/1.1/DTD/svg11.dtd">
<svg version="1.1" xmlns="http://www.w3.org/2000/svg" xmlns:xlink="http://www.w3.org/1999/xlink" viewBox="0 0 143.115 144.507">
 <g>
  <rect height="144.507" opacity="0" width="143.115" x="0" y="0"/>
  <path d="M0 58.4473C0 90.6738 26.2207 116.895 58.4473 116.895C71.1914 116.895 82.8369 112.793 92.4316 105.908L128.467 142.017C130.151 143.701 132.349 144.507 134.692 144.507C139.673 144.507 143.115 140.771 143.115 135.864C143.115 133.521 142.236 131.396 140.698 129.858L104.883 93.8232C112.427 84.0088 116.895 71.7773 116.895 58.4473C116.895 26.2207 90.6738 0 58.4473 0C26.2207 0 0 26.2207 0 58.4473ZM12.5244 58.4473C12.5244 33.1055 33.1055 12.5244 58.4473 12.5244C83.7891 12.5244 104.37 33.1055 104.37 58.4473C104.37 83.7891 83.7891 104.37 58.4473 104.37C33.1055 104.37 12.5244 83.7891 12.5244 58.4473ZM35.376 53.7598L81.8115 53.7598C84.668 53.7598 86.8652 51.4893 86.8652 48.6328C86.8652 45.7764 84.668 43.5059 81.8115 43.5059L35.376 43.5059C32.4463 43.5059 30.249 45.7764 30.249 48.6328C30.249 51.4893 32.4463 53.7598 35.376 53.7598ZM35.376 73.3154L69.0674 73.3154C71.9238 73.3154 74.2676 71.1182 74.2676 68.2617C74.2676 65.4053 71.9238 63.0615 69.0674 63.0615L35.376 63.0615C32.4463 63.0615 30.249 65.4053 30.249 68.2617C30.249 71.1182 32.4463 73.3154 35.376 73.3154Z" fill="black" fill-opacity="0.85"/>
 </g>
</svg>
